<svg xmlns="http://www.w3.org/2000/svg" width="200" height="200" viewBox="0 0 200 200" version="1.1"><path d="M 125.040 44.750 C 124.335 46.263, 118.005 60.100, 110.973 75.500 C 103.941 90.900, 94.978 110.475, 91.054 119 C 87.131 127.525, 82.074 138.662, 79.817 143.750 L 75.714 153 52.395 153 L 29.076 153 32.425 145.250 C 34.268 140.988, 37.005 134.698, 38.508 131.274 L 41.240 125.048 57.305 124.774 L 73.369 124.500 82.068 104.500 C 86.852 93.500, 94.833 75.162, 99.803 63.750 L 108.839 43 89.632 43 L 70.424 43 56.305 75.250 L 42.187 107.500 51.001 107.786 C 57.240 107.989, 60.170 108.500, 61.030 109.536 C 62.614 111.445, 68.438 111.419, 70.363 109.494 C 73.042 106.815, 73.349 103.945, 71.257 101.130 C 68.670 97.649, 63.880 97.120, 61.004 99.996 C 59.447 101.553, 57.902 102.029, 55.136 101.805 L 51.381 101.500 62.875 75.250 L 74.370 49 86.685 49 C 93.458 49, 99 49.346, 99 49.770 C 99 50.193, 92.352 65.831, 84.227 84.520 L 69.454 118.500 53.360 118.774 L 37.266 119.048 28.883 138.211 C 24.272 148.751, 20.350 157.740, 20.167 158.187 C 19.983 158.634, 33.258 158.996, 49.667 158.991 L 79.500 158.982 83.396 150.462 L 87.291 141.942 99.790 142.221 L 112.289 142.500 116.394 150.742 L 120.500 158.985 150.263 158.992 L 180.027 159 178.625 155.750 C 177.853 153.963, 172.761 142.600, 167.308 130.500 C 161.855 118.400, 150.668 93.548, 142.447 75.272 C 134.226 56.997, 127.235 42.035, 126.911 42.022 C 126.586 42.010, 125.745 43.237, 125.040 44.750 M 121.209 67.510 C 118.344 73.831, 116 79.460, 116 80.018 C 116 80.927, 126.678 102.904, 127.608 103.911 C 127.817 104.136, 128.813 103.574, 129.823 102.661 C 132.564 100.179, 138.533 100.495, 140.443 103.223 C 142.532 106.204, 142.404 108.217, 139.927 111.365 C 137.405 114.572, 133.090 114.862, 130.500 112 C 129.505 110.900, 127.479 110, 125.998 110 C 123.537 110, 122.845 108.999, 117.923 98.332 L 112.539 86.665 107.834 96.582 C 105.246 102.037, 103.100 107.294, 103.065 108.264 C 103.029 109.235, 105.928 115.872, 109.507 123.014 L 116.014 136 126.099 136 C 134.670 136, 136.566 135.700, 138.727 134 C 141.959 131.458, 144.063 131.475, 147.365 134.073 C 150.906 136.857, 150.906 141.143, 147.365 143.927 C 144.052 146.534, 141.555 146.555, 139 144 C 137.297 142.297, 135.667 142, 128.011 142 L 119.022 142 121.719 147.500 L 124.417 153 147.656 153 L 170.895 153 168.010 146.750 C 166.423 143.313, 156.738 121.825, 146.488 99 C 136.238 76.175, 127.529 57.167, 127.135 56.759 C 126.740 56.351, 124.074 61.190, 121.209 67.510 M 96.459 121.500 C 94.974 124.800, 92.929 129.412, 91.915 131.750 L 90.071 136 99.523 136 L 108.975 136 106.644 130.750 C 105.361 127.862, 103.153 123.250, 101.736 120.500 L 99.159 115.500 96.459 121.500" stroke="none" fill="#05b8b0" fill-rule="evenodd"/><path d="M -0 100.005 L -0 200.010 100.250 199.755 L 200.500 199.500 200.755 99.750 L 201.010 0 100.505 0 L 0 0 -0 100.005 M 0.481 100.500 C 0.481 155.500, 0.602 178.147, 0.750 150.826 C 0.898 123.506, 0.898 78.506, 0.750 50.826 C 0.602 23.147, 0.481 45.500, 0.481 100.500 M 125.040 44.750 C 124.335 46.263, 118.005 60.100, 110.973 75.500 C 103.941 90.900, 94.978 110.475, 91.054 119 C 87.131 127.525, 82.074 138.662, 79.817 143.750 L 75.714 153 52.395 153 L 29.076 153 32.425 145.250 C 34.268 140.988, 37.005 134.698, 38.508 131.274 L 41.240 125.048 57.305 124.774 L 73.369 124.500 82.068 104.500 C 86.852 93.500, 94.833 75.162, 99.803 63.750 L 108.839 43 89.632 43 L 70.424 43 56.305 75.250 L 42.187 107.500 51.001 107.786 C 57.240 107.989, 60.170 108.500, 61.030 109.536 C 62.614 111.445, 68.438 111.419, 70.363 109.494 C 73.042 106.815, 73.349 103.945, 71.257 101.130 C 68.670 97.649, 63.880 97.120, 61.004 99.996 C 59.447 101.553, 57.902 102.029, 55.136 101.805 L 51.381 101.500 62.875 75.250 L 74.370 49 86.685 49 C 93.458 49, 99 49.346, 99 49.770 C 99 50.193, 92.352 65.831, 84.227 84.520 L 69.454 118.500 53.360 118.774 L 37.266 119.048 28.883 138.211 C 24.272 148.751, 20.350 157.740, 20.167 158.187 C 19.983 158.634, 33.258 158.996, 49.667 158.991 L 79.500 158.982 83.396 150.462 L 87.291 141.942 99.790 142.221 L 112.289 142.500 116.394 150.742 L 120.500 158.985 150.263 158.992 L 180.027 159 178.625 155.750 C 177.853 153.963, 172.761 142.600, 167.308 130.500 C 161.855 118.400, 150.668 93.548, 142.447 75.272 C 134.226 56.997, 127.235 42.035, 126.911 42.022 C 126.586 42.010, 125.745 43.237, 125.040 44.750 M 121.209 67.510 C 118.344 73.831, 116 79.460, 116 80.018 C 116 80.927, 126.678 102.904, 127.608 103.911 C 127.817 104.136, 128.813 103.574, 129.823 102.661 C 132.564 100.179, 138.533 100.495, 140.443 103.223 C 142.532 106.204, 142.404 108.217, 139.927 111.365 C 137.405 114.572, 133.090 114.862, 130.500 112 C 129.505 110.900, 127.479 110, 125.998 110 C 123.537 110, 122.845 108.999, 117.923 98.332 L 112.539 86.665 107.834 96.582 C 105.246 102.037, 103.100 107.294, 103.065 108.264 C 103.029 109.235, 105.928 115.872, 109.507 123.014 L 116.014 136 126.099 136 C 134.670 136, 136.566 135.700, 138.727 134 C 141.959 131.458, 144.063 131.475, 147.365 134.073 C 150.906 136.857, 150.906 141.143, 147.365 143.927 C 144.052 146.534, 141.555 146.555, 139 144 C 137.297 142.297, 135.667 142, 128.011 142 L 119.022 142 121.719 147.500 L 124.417 153 147.656 153 L 170.895 153 168.010 146.750 C 166.423 143.313, 156.738 121.825, 146.488 99 C 136.238 76.175, 127.529 57.167, 127.135 56.759 C 126.740 56.351, 124.074 61.190, 121.209 67.510 M 96.459 121.500 C 94.974 124.800, 92.929 129.412, 91.915 131.750 L 90.071 136 99.523 136 L 108.975 136 106.644 130.750 C 105.361 127.862, 103.153 123.250, 101.736 120.500 L 99.159 115.500 96.459 121.500" stroke="none" fill="#3b4c54" fill-rule="evenodd"/></svg>